# xmcd
#
# Track frame offsets:
# 150
# 13607
# 26399
# 45040
# 61959
# 72232
# 83555
# 98859
# 114857
# 130929
#
# Disc length: 2371 seconds
#
#
# Revision: 2
# Processed by: cddbd v1.5.1PL0 Copyright (c) Steve Scherf et al.
# Submitted via: FreeRIP 2.70 
#
DISCID=6c09410a
DTITLE=Heroine Sheiks - Siamese Pipe
DYEAR=2002
DGENRE=
TTITLE0=Army Brat
TTITLE1=Grab the Wheel
TTITLE2=3-Banger
TTITLE3=Let It Die
TTITLE4=Open You Up
TTITLE5=My Boss
TTITLE6=Kiss It
TTITLE7=Little Schoolgirl
TTITLE8=Best Enemies
TTITLE9=Mas Suicide
EXTD=
EXTT0=
EXTT1=
EXTT2=
EXTT3=
EXTT4=
EXTT5=
EXTT6=
EXTT7=
EXTT8=
EXTT9=
PLAYORDER=
